<?xml version="1.0" encoding="UTF-8" standalone="no"?>
<!DOCTYPE svg PUBLIC "-//W3C//DTD SVG 1.1//EN" "http://www.w3.org/Graphics/SVG/1.1/DTD/svg11.dtd">
<svg width="100%" height="100%" viewBox="0 0 20 20" version="1.1" xmlns="http://www.w3.org/2000/svg" xmlns:xlink="http://www.w3.org/1999/xlink" xml:space="preserve" xmlns:serif="http://www.serif.com/" style="fill-rule:evenodd;clip-rule:evenodd;stroke-linejoin:round;stroke-miterlimit:1.41421;">
    <g transform="matrix(1,0,0,1,0,-4)">
        <g transform="matrix(0.75,0,0,0.75,-620.75,192.5)">
            <g id="General_Filter_Normal">
                <g id="Close-Icon" serif:id="Close Icon">
                    <g id="Transparent-BG" serif:id="Transparent BG" transform="matrix(1.33333,0,0,1.33333,827.667,-251.333)">
                        <rect x="0" y="0" width="20" height="20" style="fill:white;fill-opacity:0;"/>
                    </g>
                    <g id="filter" transform="matrix(1.73333,0,0,1.73333,826.467,-251.2)">
                        <path d="M3.769,3L3.769,4.195L7.615,8.002L7.615,11.176L9.154,13L9.154,8L13,4.206L13,3L3.769,3Z" style="fill:white;"/>
                        <path d="M13.055,2.233L13.109,2.239L13.164,2.248L13.217,2.262L13.269,2.279L13.32,2.3L13.369,2.325L13.416,2.353L13.461,2.384L13.504,2.419L13.544,2.456L13.581,2.496L13.616,2.539L13.647,2.584L13.675,2.631L13.7,2.68L13.721,2.731L13.738,2.783L13.752,2.836L13.761,2.891L13.767,2.945L13.769,3L13.769,4.206L13.767,4.261L13.761,4.316L13.751,4.371L13.738,4.424L13.72,4.477L13.699,4.528L13.674,4.577L13.645,4.625L13.613,4.67L13.578,4.713L13.54,4.754L9.923,8.322L9.923,13L9.921,13.055L9.915,13.11L9.905,13.164L9.892,13.218L9.874,13.27L9.853,13.321L9.828,13.371L9.8,13.418L9.768,13.463L9.733,13.506L9.695,13.546L9.655,13.584L9.612,13.618L9.566,13.649L9.519,13.677L9.469,13.702L9.418,13.723L9.365,13.74L9.312,13.753L9.257,13.762L9.202,13.768L9.147,13.769L9.092,13.767L9.037,13.76L8.983,13.75L8.93,13.736L8.877,13.718L8.827,13.696L8.778,13.671L8.73,13.642L8.685,13.61L8.643,13.575L8.603,13.537L8.566,13.496L7.027,11.672L6.994,11.629L6.964,11.585L6.937,11.538L6.913,11.49L6.893,11.44L6.876,11.389L6.863,11.336L6.854,11.283L6.848,11.23L6.846,11.176L6.846,8.323L3.228,4.742L3.19,4.701L3.155,4.658L3.124,4.613L3.095,4.566L3.07,4.516L3.049,4.465L3.032,4.413L3.018,4.359L3.008,4.305L3.002,4.25L3,4.195L3,3L3.002,2.945L3.008,2.891L3.018,2.836L3.031,2.783L3.049,2.731L3.07,2.68L3.094,2.631L3.122,2.584L3.153,2.539L3.188,2.496L3.225,2.456L3.265,2.419L3.308,2.384L3.353,2.353L3.401,2.325L3.45,2.3L3.5,2.279L3.553,2.262L3.606,2.248L3.66,2.239L3.714,2.233L3.769,2.231L13,2.231L13.055,2.233ZM3.769,3L3.769,4.195L7.615,8.002L7.615,11.176L9.154,13L9.154,8L13,4.206L13,3L3.769,3Z"/>
                    </g>
                    <g transform="matrix(1.33333,0,0,1.33333,89,-1518)">
                        <path d="M569,968L572,968L572,965L569,968Z" style="fill:rgb(241,241,241);"/>
                        <path d="M572,968L569,968L572,965L572,968Z" style="fill:white;fill-opacity:0;"/>
                    </g>
                </g>
            </g>
        </g>
    </g>
</svg>
