<?xml version="1.0" encoding="UTF-8" standalone="no"?>
<!DOCTYPE svg PUBLIC "-//W3C//DTD SVG 1.1//EN" "http://www.w3.org/Graphics/SVG/1.1/DTD/svg11.dtd">
<svg width="100%" height="100%" viewBox="0 0 15 15" version="1.1" xmlns="http://www.w3.org/2000/svg" xmlns:xlink="http://www.w3.org/1999/xlink" xml:space="preserve" xmlns:serif="http://www.serif.com/" style="fill-rule:evenodd;clip-rule:evenodd;stroke-linejoin:round;stroke-miterlimit:1.41421;">
    <g transform="matrix(1,0,0,1,-320,-285)">
        <g id="ObjectIcons_LoudnessNormalize_dis" transform="matrix(1,0,0,1,160,260)">
            <g opacity="0.3">
                <g transform="matrix(1,0,0,1,120,-1.1724e-13)">
                    <g id="Object-Icon-Base" serif:id="Object Icon Base">
                        <path d="M55,27.1C55,25.941 54.059,25 52.9,25L42.1,25C40.941,25 40,25.941 40,27.1L40,37.9C40,39.059 40.941,40 42.1,40L52.9,40C54.059,40 55,39.059 55,37.9L55,27.1Z" style="fill:rgb(75,75,75);"/>
                    </g>
                </g>
                <g transform="matrix(0.928571,0,0,0.272727,-380.357,-58)">
                    <path d="M597,312.95C597,310.218 596.349,308 595.546,308L584.454,308C583.651,308 583,310.218 583,312.95L583,314.05C583,316.782 583.651,319 584.454,319L595.546,319C596.349,319 597,316.782 597,314.05L597,312.95Z"/>
                </g>
                <g transform="matrix(0.785714,0,0,0.0909091,-296.071,-1)">
                    <path d="M597,309.363C597,308.611 596.929,308 596.842,308L583.158,308C583.071,308 583,308.611 583,309.363L583,317.637C583,318.389 583.071,319 583.158,319L596.842,319C596.929,319 597,318.389 597,317.637L597,309.363Z" style="fill:white;"/>
                </g>
                <g transform="matrix(0.928571,0,0,0.272727,-380.357,-48)">
                    <path d="M597,313.5C597,310.464 596.276,308 595.385,308L584.615,308C583.724,308 583,310.464 583,313.5C583,316.536 583.724,319 584.615,319L595.385,319C596.276,319 597,316.536 597,313.5Z"/>
                </g>
                <g transform="matrix(0.785714,0,0,0.0909091,-296.071,9)">
                    <path d="M597,309.363C597,308.611 596.929,308 596.842,308L583.158,308C583.071,308 583,308.611 583,309.363L583,317.637C583,318.389 583.071,319 583.158,319L596.842,319C596.929,319 597,318.389 597,317.637L597,309.363Z" style="fill:white;"/>
                </g>
                <g transform="matrix(1,0,0,1,-1,0)">
                    <g transform="matrix(0.928571,0,0,0.818182,-380.357,-224)">
                        <path d="M597,309.363C597,308.611 596.462,308 595.799,308L584.201,308C583.538,308 583,308.611 583,309.363L583,317.637C583,318.389 583.538,319 584.201,319L595.799,319C596.462,319 597,318.389 597,317.637L597,309.363Z" style="fill:none;"/>
                    </g>
                    <g transform="matrix(1,0,0,1,60,-49.9975)">
                        <path d="M112.594,78.999L112.665,79.005L112.735,79.016L112.804,79.032L112.872,79.053L112.938,79.079L113.002,79.109L113.064,79.144L113.124,79.183L113.18,79.227L113.233,79.274L113.283,79.324L113.328,79.379L113.37,79.436L113.408,79.496L113.441,79.559L113.47,79.623L113.979,80.884L114.704,81.224L115.026,81.233L115.096,81.237L115.166,81.246L115.234,81.26L115.302,81.279L115.368,81.302L115.432,81.331L115.495,81.363L115.554,81.4L115.611,81.441L115.665,81.486L115.716,81.534L115.763,81.586L115.807,81.641L115.846,81.7L115.882,81.76L115.913,81.823L115.939,81.888L115.961,81.955L115.978,82.023L115.99,82.092L115.998,82.162L116,82.232L116,82.745L115.998,82.816L115.99,82.886L115.978,82.956L115.96,83.025L115.938,83.092L115.911,83.157L115.88,83.221L115.844,83.282L115.804,83.34L115.76,83.395L115.712,83.447L115.661,83.496L115.606,83.541L115.548,83.582L115.488,83.618L115.425,83.651L115.36,83.678L115.293,83.702L115.225,83.72L115.155,83.733L115.085,83.742L114.754,83.77L113.976,84.123L113.47,85.377L113.441,85.442L113.408,85.505L113.37,85.565L113.328,85.622L113.282,85.677L113.232,85.728L113.178,85.775L113.122,85.818L113.062,85.857L113,85.892L112.935,85.922L112.869,85.948L112.801,85.969L112.731,85.985L112.661,85.995L112.59,86.001L112.519,86.002L112.447,85.998L112.377,85.989L112.307,85.974L112.238,85.955L112.171,85.931L112.106,85.902L112.043,85.869L111.983,85.831L111.925,85.789L111.871,85.743L111.82,85.693L111.772,85.64L111.729,85.583L111.69,85.524L111.655,85.462L111.624,85.397L111.415,84.91L111.364,84.931L111.298,84.955L111.23,84.973L111.161,84.987L111.091,84.996L111.021,85L110.95,84.999L110.88,84.993L110.811,84.982L110.742,84.966L110.675,84.946L110.609,84.92L110.545,84.891L110.484,84.856L110.425,84.818L110.369,84.776L110.316,84.729L110.274,84.687L110.242,84.72L110.19,84.767L110.134,84.811L110.075,84.851L110.013,84.886L109.949,84.917L109.883,84.944L109.816,84.966L109.747,84.982L109.677,84.994L109.606,85.001L109.535,85.003L109.515,85.002L109.393,85.34L109.366,85.406L109.335,85.47L109.299,85.532L109.259,85.591L109.215,85.647L109.167,85.7L109.115,85.749L109.06,85.795L109.001,85.836L108.94,85.873L108.877,85.906L108.811,85.934L108.743,85.957L108.674,85.975L108.604,85.988L108.533,85.997L108.462,86L108.391,85.998L108.319,85.991L108.249,85.979L108.18,85.962L108.112,85.94L108.045,85.913L107.981,85.882L107.919,85.846L107.86,85.806L107.804,85.762L107.752,85.713L107.703,85.661L107.657,85.606L107.616,85.548L107.579,85.487L107.547,85.423L107.519,85.357L107.495,85.29L107.477,85.221L107.346,84.639L107.301,84.633L107.233,84.619L107.165,84.6L107.099,84.576L107.035,84.547L106.972,84.515L106.913,84.478L106.856,84.436L106.802,84.391L106.782,84.372L106.474,85.312L106.449,85.379L106.42,85.444L106.386,85.506L106.347,85.566L106.305,85.624L106.259,85.678L106.208,85.729L106.155,85.776L106.098,85.819L106.038,85.857L105.975,85.892L105.911,85.922L105.844,85.947L105.776,85.968L105.706,85.983L105.635,85.994L105.564,85.999L105.493,86L105.422,85.995L105.351,85.985L105.281,85.97L105.213,85.951L105.146,85.926L105.081,85.897L105.018,85.863L104.958,85.825L104.9,85.782L104.846,85.736L104.795,85.686L104.748,85.632L104.705,85.575L104.666,85.515L104.632,85.453L104.602,85.388L104.577,85.322L104.556,85.253L104.515,85.096L104.493,85.104L104.426,85.124L104.358,85.139L104.289,85.15L104.219,85.155L104.15,85.156L104.08,85.151L104.011,85.142L103.942,85.128L103.875,85.11L103.809,85.086L103.745,85.059L103.683,85.026L103.624,84.99L103.567,84.949L103.513,84.905L103.462,84.857L103.415,84.805L103.372,84.751L103.332,84.693L103.297,84.633L103.266,84.57L103.239,84.506L103.217,84.44L103.035,83.826L102.865,83.782L101.985,83.769L101.915,83.765L101.845,83.757L101.775,83.743L101.707,83.725L101.64,83.702L101.575,83.674L101.512,83.642L101.452,83.605L101.394,83.564L101.339,83.519L101.288,83.471L101.24,83.419L101.196,83.363L101.156,83.305L101.12,83.244L101.089,83.181L101.062,83.115L101.04,83.048L101.022,82.98L101.01,82.91L101.003,82.84L101,82.769L101,82.237L101.002,82.166L101.01,82.096L101.022,82.027L101.04,81.959L101.062,81.892L101.088,81.826L101.119,81.763L101.155,81.702L101.195,81.644L101.239,81.589L101.286,81.537L101.337,81.488L101.392,81.443L101.449,81.402L101.509,81.366L101.572,81.333L101.637,81.305L101.703,81.282L101.772,81.263L101.841,81.25L101.911,81.241L101.981,81.237L102.863,81.22L103.04,81.174L103.217,80.579L103.24,80.511L103.268,80.444L103.3,80.38L103.337,80.319L103.378,80.26L103.424,80.204L103.473,80.152L103.526,80.104L103.582,80.059L103.641,80.018L103.703,79.982L103.768,79.951L103.834,79.924L103.902,79.902L103.972,79.884L104.043,79.872L104.114,79.865L104.186,79.863L104.258,79.867L104.329,79.875L104.4,79.889L104.469,79.907L104.51,79.922L104.556,79.747L104.577,79.678L104.602,79.612L104.632,79.547L104.666,79.485L104.705,79.425L104.748,79.368L104.795,79.314L104.846,79.264L104.9,79.218L104.958,79.175L105.018,79.137L105.081,79.103L105.146,79.074L105.213,79.049L105.281,79.03L105.351,79.015L105.422,79.005L105.493,79L105.564,79.001L105.635,79.006L105.706,79.017L105.776,79.032L105.844,79.053L105.911,79.078L105.975,79.108L106.038,79.143L106.098,79.181L106.155,79.224L106.208,79.271L106.259,79.322L106.305,79.376L106.347,79.434L106.386,79.494L106.42,79.556L106.449,79.622L106.474,79.688L106.809,80.712L106.824,80.7L106.881,80.659L106.94,80.622L107.002,80.589L107.066,80.561L107.132,80.537L107.2,80.518L107.268,80.503L107.338,80.494L107.359,80.492L107.552,79.748L107.573,79.68L107.598,79.613L107.628,79.548L107.663,79.486L107.701,79.426L107.745,79.369L107.792,79.315L107.842,79.265L107.897,79.218L107.954,79.176L108.014,79.137L108.077,79.103L108.142,79.074L108.209,79.05L108.278,79.03L108.348,79.015L108.419,79.005L108.49,79L108.561,79.001L108.633,79.006L108.703,79.017L108.773,79.033L108.841,79.053L108.908,79.078L108.973,79.108L109.036,79.143L109.095,79.182L109.152,79.225L109.206,79.272L109.256,79.323L109.303,79.377L109.345,79.435L109.383,79.495L109.417,79.558L109.446,79.623L109.471,79.69L109.566,79.981L109.611,79.983L109.682,79.99L109.753,80.003L109.822,80.02L109.89,80.043L109.957,80.07L110.021,80.103L110.083,80.139L110.142,80.18L110.197,80.225L110.25,80.274L110.28,80.307L110.306,80.28L110.359,80.233L110.414,80.19L110.473,80.15L110.534,80.115L110.597,80.085L110.662,80.059L110.729,80.037L110.797,80.021L110.867,80.009L110.937,80.002L111.007,80L111.077,80.003L111.147,80.011L111.216,80.024L111.284,80.041L111.351,80.064L111.41,80.088L111.628,79.594L111.659,79.53L111.694,79.469L111.734,79.41L111.778,79.354L111.825,79.301L111.877,79.252L111.931,79.207L111.989,79.165L112.049,79.128L112.112,79.095L112.177,79.067L112.244,79.043L112.313,79.024L112.382,79.011L112.453,79.002L112.524,78.998L112.594,78.999ZM111.514,82.33L111,81L110.698,82.225L110,82.225L109.541,80.98L109.171,82L108.52,80L108,82L107.439,81.489L107.068,82L106.179,82L105.523,80L105,82L104.176,80.863L103.838,82L103,82.218L102,82.237L102,82.769L103,82.783L103.834,83L104.176,84.156L105,83L105.523,85L106.179,83L107,83L107.47,83.647L108,83L108.453,85L109.175,83L109.545,84.003L110,82.837L110.698,82.837L111,84L111.514,82.607L112.543,85.002L113.199,83.377L114.497,82.788L115,82.745L115,82.232L114.468,82.219L113.199,81.623L112.543,79.998L111.514,82.33Z"/>
                        <path d="M103.838,82L104.176,80.863L105,82L105.523,80L106.179,82L107.068,82L107.439,81.489L108,82L108.52,80L109.171,82L109.541,80.98L110,82.225L110.698,82.225L111,81L111.514,82.33L112.543,79.998L113.199,81.623L114.468,82.219L115,82.232L115,82.745L114.497,82.788L113.199,83.377L112.543,85.002L111.514,82.607L111,84L110.698,82.837L110,82.837L109.545,84.003L109.175,83L108.453,85L108,83L107.47,83.647L107,83L106.179,83L105.523,85L105,83L104.176,84.156L103.834,83L103,82.783L102,82.769L102,82.237L103,82.218L103.838,82Z" style="fill:white;"/>
                    </g>
                </g>
            </g>
        </g>
    </g>
</svg>
