<?xml version="1.0" encoding="UTF-8" standalone="no"?>
<!DOCTYPE svg PUBLIC "-//W3C//DTD SVG 1.1//EN" "http://www.w3.org/Graphics/SVG/1.1/DTD/svg11.dtd">
<svg width="100%" height="100%" viewBox="0 0 15 15" version="1.1" xmlns="http://www.w3.org/2000/svg" xmlns:xlink="http://www.w3.org/1999/xlink" xml:space="preserve" xmlns:serif="http://www.serif.com/" style="fill-rule:evenodd;clip-rule:evenodd;stroke-linejoin:round;stroke-miterlimit:1.41421;">
    <g transform="matrix(1,0,0,1,-320,-85)">
        <g id="ObjectIcons_Silence_dis" transform="matrix(1,0,0,1,80,-19.9971)">
            <g opacity="0.3">
                <g id="Icons" transform="matrix(1,0,0,1,240,105)">
                    <g transform="matrix(1,0,0,1,-40,-25.0029)">
                        <g id="Base-Block" serif:id="Base Block">
                            <path d="M55,27.1C55,25.941 54.059,25 52.9,25L42.1,25C40.941,25 40,25.941 40,27.1L40,37.9C40,39.059 40.941,40 42.1,40L52.9,40C54.059,40 55,39.059 55,37.9L55,27.1Z" style="fill:rgb(75,75,75);"/>
                        </g>
                    </g>
                    <g transform="matrix(1,0,0,1,-111,-85)">
                        <rect x="114" y="85" width="9" height="15" style="fill:white;fill-opacity:0;"/>
                    </g>
                    <path d="M5.773,-0.003L11.81,4.595C11.411,4.983 9.488,6.554 9.174,7.576C10.044,8.696 11.808,10.437 12.821,11.416C12.821,11.416 12.046,12.336 12.111,12.499C12.073,12.458 8.314,11.191 8.096,11.682C7.685,12.607 9.429,13.301 10.144,13.703L9.89,14.997C9.89,14.997 8.703,14.995 7.699,14.994C7.566,14.994 7.441,14.961 7.326,14.938C5.517,14.577 3.984,12.546 4.239,10.576C4.457,8.889 5.634,8.297 5.634,8.297C4.938,7.713 3.521,6.477 3.521,6.477L3.562,6.16C4.196,5.839 5.461,5.059 5.696,4.143C5.955,3.134 4.199,1.765 4.199,1.765L4.735,-0.003L5.773,-0.003ZM5.448,1L5.306,1.454C5.306,1.454 6.979,2.929 6.676,4.27C6.372,5.612 5,6.432 5,6.432L7.958,9C7.958,9 5.928,8.366 5.318,10.168C4.709,11.971 6.361,13.681 7.868,13.781C8.306,13.81 8.567,13.792 8.567,13.792C8.567,13.792 7.954,13.524 7.884,13.468C7.296,12.996 6.126,12.073 7,11C7.385,10.528 8.979,10.825 10,11C10.844,11.144 11.177,11.138 11.177,11.138C10.146,10.091 8.433,8.608 8.09,7.622C8.266,7.119 8.5,6.665 8.784,6.245C9.084,5.801 9.889,5.064 10.288,4.676L5.448,1Z"/>
                    <g transform="matrix(1,0,0,1,-109.042,-85)">
                        <path d="M114.49,86L114.348,86.454C114.348,86.454 116.021,87.929 115.718,89.27C115.414,90.612 114.042,91.432 114.042,91.432L117,94C117,94 114.97,93.366 114.36,95.168C113.751,96.971 115.403,98.939 116.91,99.039C117.348,99.068 117.609,99.05 117.609,99.05C117.609,99.05 116.996,98.783 116.926,98.726C116.338,98.254 115.168,97.073 116.042,96C116.427,95.528 118.021,95.825 119.042,96C119.886,96.144 120.219,96.138 120.219,96.138C119.188,95.091 117.475,93.608 117.132,92.622C117.308,92.119 117.542,91.665 117.826,91.245C118.126,90.801 118.931,90.064 119.33,89.676L114.49,86Z" style="fill:white;"/>
                    </g>
                </g>
            </g>
        </g>
    </g>
</svg>
