<?xml version="1.0" encoding="UTF-8" standalone="no"?>
<!DOCTYPE svg PUBLIC "-//W3C//DTD SVG 1.1//EN" "http://www.w3.org/Graphics/SVG/1.1/DTD/svg11.dtd">
<svg width="100%" height="100%" viewBox="0 0 15 15" version="1.1" xmlns="http://www.w3.org/2000/svg" xmlns:xlink="http://www.w3.org/1999/xlink" xml:space="preserve" xmlns:serif="http://www.serif.com/" style="fill-rule:evenodd;clip-rule:evenodd;stroke-linejoin:round;stroke-miterlimit:1.41421;">
    <g transform="matrix(1,0,0,1,-340,-285)">
        <g id="ObjectIcons_Randomizer_nor" transform="matrix(1,0,0,1,180,260)">
            <g transform="matrix(1,0,0,1,120,-1.13687e-13)">
                <g id="Object-Icon-Base" serif:id="Object Icon Base">
                    <path d="M55,27.1C55,25.941 54.059,25 52.9,25L42.1,25C40.941,25 40,25.941 40,27.1L40,37.9C40,39.059 40.941,40 42.1,40L52.9,40C54.059,40 55,39.059 55,37.9L55,27.1Z" style="fill:rgb(75,75,75);"/>
                </g>
            </g>
            <g transform="matrix(1,0,0,1,-180,-260)">
                <circle cx="347.5" cy="292.5" r="6.5"/>
            </g>
            <g id="Random-Icon-" serif:id="Random Icon " transform="matrix(1.22446,0,0,1.22222,-478.392,-296.889)">
                <path d="M523,269.554C523.442,269.295 524.08,269.104 525,269.091C526.863,269.063 527.38,271.091 529,271.091C530.182,271.091 531.249,270.513 531.984,269.978C531.787,272.281 529.853,274 527.5,274C525.016,274 523,271.932 523,269.571L523,269.554ZM523.177,268.273C523.681,266.339 525.485,265 527.5,265C529.57,265 531.224,266.31 531.748,268.214C531.414,268.774 530.534,269.909 528.909,269.909C527.552,269.909 527.4,267.909 524.909,267.909C524.183,267.909 523.672,268.076 523.177,268.273Z" style="fill:white;"/>
            </g>
        </g>
    </g>
</svg>
