<?xml version="1.0" encoding="UTF-8" standalone="no"?>
<!DOCTYPE svg PUBLIC "-//W3C//DTD SVG 1.1//EN" "http://www.w3.org/Graphics/SVG/1.1/DTD/svg11.dtd">
<svg width="100%" height="100%" viewBox="0 0 15 15" version="1.1" xmlns="http://www.w3.org/2000/svg" xmlns:xlink="http://www.w3.org/1999/xlink" xml:space="preserve" xmlns:serif="http://www.serif.com/" style="fill-rule:evenodd;clip-rule:evenodd;stroke-linejoin:round;stroke-miterlimit:1.41421;">
    <g transform="matrix(1,0,0,1,-100,-245)">
        <g id="ObjectIcons_Percentage_nor" transform="matrix(1.07143,0,0,1.07557,-406.571,12.2847)">
            <g>
                <g transform="matrix(0.933333,0,0,0.929739,435.467,193.121)">
                    <g id="Base-Block" serif:id="Base Block">
                        <path d="M55,27.1C55,25.941 54.059,25 52.9,25L42.1,25C40.941,25 40,25.941 40,27.1L40,37.9C40,39.059 40.941,40 42.1,40L52.9,40C54.059,40 55,39.059 55,37.9L55,27.1Z" style="fill:rgb(75,75,75);"/>
                    </g>
                </g>
                <path d="M479.313,220.256L480.498,218.211C480.839,217.622 481.596,217.421 482.186,217.76L483.193,218.34C483.784,218.679 483.987,219.433 483.646,220.021L481.169,224.294C481.565,223.985 482.061,223.802 482.6,223.802C483.888,223.802 484.933,224.844 484.933,226.127C484.933,227.41 483.888,228.451 482.6,228.451C481.312,228.451 480.267,227.41 480.267,226.127C480.267,226.019 480.274,225.913 480.291,225.809L478.86,228.278C478.519,228.867 477.762,229.069 477.172,228.729L476.165,228.15C475.574,227.81 475.371,227.057 475.712,226.468L477.901,222.693C477.624,222.809 477.319,222.873 477,222.873C475.712,222.873 474.667,221.831 474.667,220.548C474.667,219.265 475.712,218.224 477,218.224C478.189,218.224 479.171,219.112 479.313,220.256ZM483.027,219.296L481.45,218.389L476.359,227.173L477.936,228.081L483.027,219.296ZM482.6,224.732C483.373,224.732 484,225.357 484,226.127C484,226.896 483.373,227.521 482.6,227.521C481.827,227.521 481.2,226.896 481.2,226.127C481.2,225.357 481.827,224.732 482.6,224.732ZM477,219.154C477.773,219.154 478.4,219.779 478.4,220.548C478.4,221.318 477.773,221.943 477,221.943C476.227,221.943 475.6,221.318 475.6,220.548C475.6,219.779 476.227,219.154 477,219.154Z"/>
                <g transform="matrix(0.933333,0,0,0.929739,-300.933,-308.938)">
                    <circle cx="833.5" cy="569.5" r="1.5" style="fill:white;"/>
                </g>
                <g transform="matrix(0.933333,0,0,0.929739,-295.333,-303.36)">
                    <circle cx="833.5" cy="569.5" r="1.5" style="fill:white;"/>
                </g>
                <g transform="matrix(0.788721,0.453615,-0.462846,0.798586,84.5132,-613.631)">
                    <rect x="836" y="567" width="2" height="11" style="fill:white;"/>
                </g>
            </g>
        </g>
    </g>
</svg>
