<?xml version="1.0" encoding="UTF-8" standalone="no"?>
<!DOCTYPE svg PUBLIC "-//W3C//DTD SVG 1.1//EN" "http://www.w3.org/Graphics/SVG/1.1/DTD/svg11.dtd">
<svg width="100%" height="100%" viewBox="0 0 20 20" version="1.1" xmlns="http://www.w3.org/2000/svg" xmlns:xlink="http://www.w3.org/1999/xlink" xml:space="preserve" xmlns:serif="http://www.serif.com/" style="fill-rule:evenodd;clip-rule:evenodd;stroke-linejoin:round;stroke-miterlimit:2;">
    <g transform="matrix(1,0,0,1,-341,-44)">
        <g id="General_SmallAddSoundBank_Normal" transform="matrix(1,0,0,1,66,-21)">
            <g id="Base-Block" serif:id="Base Block" transform="matrix(1,0,0,1,278,68)">
                <g transform="matrix(1,0,0,1,-40,-25)">
                    <path d="M55,27.1C55,25.941 54.059,25 52.9,25L42.1,25C40.941,25 40,25.941 40,27.1L40,37.9C40,39.059 40.941,40 42.1,40L52.9,40C54.059,40 55,39.059 55,37.9L55,27.1Z" style="fill-opacity:0;"/>
                </g>
                <g id="Transparent-BG" serif:id="Transparent BG" transform="matrix(1,0,0,1,-3,-3)">
                    <rect x="0" y="0" width="20" height="20" style="fill:white;fill-opacity:0;"/>
                </g>
            </g>
            <g transform="matrix(1,0,0,1,277,66)">
                <g id="ObjectIcons_Soundbank_nor">
                    <g id="Icons">
                        <g transform="matrix(1,0,0,1,-40,-25)">
                            <g id="Base-Block1" serif:id="Base Block">
                                <path d="M55,27.1C55,25.941 54.059,25 52.9,25L42.1,25C40.941,25 40,25.941 40,27.1L40,37.9C40,39.059 40.941,40 42.1,40L52.9,40C54.059,40 55,39.059 55,37.9L55,27.1Z" style="fill-opacity:0;"/>
                            </g>
                        </g>
                        <g transform="matrix(1.57143,0,0,1.44444,-4.28571,-3.33333)">
                            <path d="M11,4.675C11,3.751 10.31,3 9.46,3L5.54,3C4.69,3 4,3.751 4,4.675L4,10.325C4,11.249 4.69,12 5.54,12L9.46,12C10.31,12 11,11.249 11,10.325L11,4.675Z" style="fill:rgb(205,205,205);"/>
                        </g>
                        <g transform="matrix(1,0,0,1.16667,-160,-29.8333)">
                            <path d="M175,30.5C175,29.672 174.216,29 173.25,29L161.75,29C160.784,29 160,29.672 160,30.5L160,33.5C160,34.328 160.784,35 161.75,35L173.25,35C174.216,35 175,34.328 175,33.5L175,30.5Z" style="fill:rgb(205,205,205);"/>
                        </g>
                        <g transform="matrix(1,0,0,1,-308,-85)">
                            <path d="M322,92L321,92L321,93L322,93L322,92ZM322,90L321,90L321,91L322,91L322,90ZM322,94L321,94L321,95L322,95L322,94ZM310,92L309,92L309,93L310,93L310,92ZM310,90L309,90L309,91L310,91L310,90ZM310,94L309,94L309,95L310,95L310,94Z" style="fill:rgb(37,37,37);"/>
                        </g>
                        <g transform="matrix(1.28571,0,0,1.22222,-2.14286,-1.66667)">
                            <path d="M11,4.031C11,3.462 10.561,3 10.02,3L4.98,3C4.439,3 4,3.462 4,4.031L4,10.969C4,11.538 4.439,12 4.98,12L10.02,12C10.561,12 11,11.538 11,10.969L11,4.031Z" style="fill:rgb(37,37,37);"/>
                        </g>
                        <g transform="matrix(0.842382,0,0,0.774249,-117.591,-64.2877)">
                            <path d="M148.589,97.376C145.958,97.376 145.511,96.278 145.529,94.656L146.716,94.656C146.731,95.558 146.894,95.948 148.523,95.948C149.943,95.948 150.278,95.587 150.278,94.656C150.278,93.726 149.949,93.425 148.506,93.443C146.097,93.472 145.391,92.368 145.391,90.782C145.391,89.196 146.014,88.067 148.529,88.067C150.88,88.067 151.447,89.044 151.465,90.782L150.278,90.782C150.273,89.651 149.983,89.49 148.584,89.49C147.566,89.49 146.705,89.721 146.716,90.782C146.73,92.005 147.453,92.008 148.564,92.013C151.023,92.025 151.586,92.616 151.586,94.656C151.586,96.339 151.221,97.376 148.589,97.376Z" style="fill:rgb(205,205,205);fill-rule:nonzero;"/>
                        </g>
                        <g transform="matrix(1,0,0,1,-308,-85)">
                            <path d="M320,90L321,90L321,91L320,91L320,90ZM320,92L321,92L321,93L320,93L320,92ZM320,94L321,94L321,95L320,95L320,94ZM310,90L311,90L311,91L310,91L310,90ZM310,92L311,92L311,93L310,93L310,92ZM310,94L311,94L311,95L310,95L310,94Z" style="fill:rgb(37,37,37);fill-opacity:0.6;"/>
                        </g>
                    </g>
                </g>
            </g>
            <g transform="matrix(1.5,0,0,1.28571,-735,-96)">
                <path d="M686,133.887C686,133.397 685.659,133 685.24,133L680.76,133C680.341,133 680,133.397 680,133.887L680,139.113C680,139.603 680.341,140 680.76,140L685.24,140C685.659,140 686,139.603 686,139.113L686,133.887Z" style="fill:rgb(205,205,205);"/>
            </g>
            <g transform="matrix(1.16667,0,0,1,-507.333,-57)">
                <path d="M686,134.75C686,133.784 685.328,133 684.5,133L681.5,133C680.672,133 680,133.784 680,134.75L680,138.25C680,139.216 680.672,140 681.5,140L684.5,140C685.328,140 686,139.216 686,138.25L686,134.75Z" style="fill:rgb(34,34,34);"/>
            </g>
            <g id="Cross" transform="matrix(1,0,0,1,0,1)">
                <path d="M290,78L292,78L292,79L290,79L290,81L289,81L289,79L287,79L287,78L289,78L289,76L290,76L290,78Z" style="fill:rgb(226,226,226);"/>
            </g>
        </g>
    </g>
</svg>
